<svg xmlns="http://www.w3.org/2000/svg" viewBox="131 -7 575 901" width="575" height="901" role="img" aria-label="Wojak figure" shape-rendering="geometricPrecision">
  <g transform="translate(0.000000,900.000000) scale(0.100000,-0.100000)"><path d="M4080 8791 c-205 -6 -205 -6 -282 -43 -42 -21 -79 -42 -83 -48 -3 -6
-21 -17 -38 -25 -18 -8 -52 -28 -77 -44 -25 -16 -54 -30 -66 -30 -11 -1 -35
-12 -54 -26 -19 -14 -42 -25 -51 -25 -10 0 -20 -4 -23 -9 -3 -5 -31 -23 -61
-40 -30 -17 -76 -47 -101 -66 -25 -19 -51 -35 -58 -35 -8 0 -32 -20 -55 -45
-31 -34 -41 -53 -41 -79 0 -22 -9 -45 -26 -65 -33 -39 -41 -111 -25 -229 9
-67 9 -105 -1 -167 -7 -44 -13 -163 -13 -265 -1 -111 -6 -205 -14 -235 -9 -36
-13 -161 -13 -435 0 -370 1 -387 21 -430 11 -25 21 -66 21 -91 0 -25 9 -88 21
-140 18 -86 20 -129 20 -489 1 -395 1 -395 -25 -444 -14 -27 -26 -55 -26 -61
0 -7 -7 -26 -15 -41 -9 -17 -15 -56 -15 -93 0 -77 -17 -109 -103 -198 l-59
-61 -105 86 c-57 48 -130 109 -161 135 -31 27 -71 55 -88 62 -17 8 -36 21 -44
29 -7 9 -20 16 -30 16 -9 0 -25 9 -35 20 -10 11 -26 20 -35 20 -9 0 -25 9 -35
20 -10 11 -27 20 -37 20 -11 0 -31 9 -45 20 -14 11 -36 20 -49 20 -13 0 -41 9
-61 20 -26 14 -57 20 -103 20 -41 1 -72 6 -84 15 -25 19 -67 19 -113 0 -19 -8
-50 -15 -67 -15 -17 0 -36 -4 -41 -8 -24 -17 -65 -90 -65 -116 0 -15 -9 -39
-20 -53 -12 -15 -20 -41 -20 -62 0 -21 -5 -42 -11 -48 -22 -22 6 -354 34 -397
9 -14 17 -42 17 -63 0 -21 9 -58 20 -82 11 -24 20 -56 20 -71 0 -15 8 -38 19
-51 10 -13 22 -35 26 -49 4 -14 22 -43 39 -65 17 -22 53 -71 80 -110 26 -38
71 -103 99 -143 29 -39 65 -91 81 -115 17 -23 45 -58 62 -77 18 -19 66 -76
106 -126 40 -51 95 -118 121 -150 89 -109 189 -239 212 -274 13 -19 75 -90
139 -157 108 -114 116 -126 116 -162 0 -22 5 -43 10 -46 6 -3 10 -39 10 -78 0
-40 7 -97 16 -127 9 -30 20 -84 26 -120 5 -36 16 -75 24 -88 11 -17 17 -63 21
-155 3 -73 10 -140 15 -150 5 -10 14 -62 19 -114 6 -53 15 -106 22 -117 6 -12
14 -61 17 -111 4 -51 13 -105 22 -125 13 -28 18 -77 21 -235 3 -159 7 -208 20
-237 14 -32 17 -75 17 -276 0 -224 1 -241 20 -265 11 -14 20 -36 20 -50 0 -13
8 -35 18 -48 11 -13 22 -36 25 -51 7 -26 121 -148 139 -148 6 0 21 -9 35 -20
14 -11 36 -20 49 -20 14 0 55 -8 92 -18 79 -22 233 -19 253 4 6 8 24 14 40 14
32 0 69 30 69 57 1 10 9 43 20 73 11 32 19 82 20 121 0 38 6 79 15 97 9 16 18
61 21 99 4 37 15 86 25 109 10 22 19 52 19 67 0 14 9 49 20 77 11 28 20 59 20
68 0 10 21 39 48 64 47 46 47 46 138 50 64 3 99 9 117 21 48 31 87 23 140 -31
42 -43 47 -52 47 -93 0 -25 6 -51 12 -57 7 -7 15 -46 19 -87 4 -49 12 -81 22
-93 10 -10 17 -32 17 -49 0 -17 9 -42 20 -56 11 -14 20 -36 20 -50 0 -13 9
-36 20 -50 11 -14 20 -34 20 -45 0 -10 8 -30 18 -43 11 -13 22 -36 25 -50 4
-14 26 -47 50 -72 43 -47 43 -47 126 -47 54 0 92 -5 111 -15 27 -14 34 -14 66
0 20 8 62 15 94 15 42 0 64 5 83 20 14 11 34 20 45 20 10 0 27 9 37 20 10 11
23 20 29 20 17 1 76 58 76 73 0 8 9 22 20 32 11 10 20 22 20 27 0 6 9 21 20
35 11 14 20 37 20 50 0 13 9 36 19 51 13 19 21 51 24 104 3 42 10 86 17 97 6
12 13 67 17 124 4 69 11 110 22 127 14 22 16 100 19 750 3 600 6 732 18 768
20 61 20 319 -1 369 -30 72 -34 67 248 347 144 145 288 280 320 301 32 20 66
49 75 62 33 48 111 140 201 237 50 55 91 104 91 111 0 7 9 20 20 30 11 10 22
27 26 39 4 11 15 32 25 45 11 13 19 30 19 38 0 8 9 26 20 40 11 14 20 38 20
53 0 15 7 33 15 40 8 7 17 28 21 49 4 20 15 47 25 60 11 13 19 34 19 47 0 13
9 38 20 56 11 18 20 48 20 66 0 18 8 44 17 59 22 33 24 185 3 223 -8 14 -17
49 -21 78 -4 30 -15 62 -23 71 -9 10 -16 25 -16 33 0 22 -56 68 -83 68 -12 1
-33 7 -47 15 -33 19 -131 19 -156 0 -10 -8 -33 -15 -50 -15 -17 0 -42 -8 -55
-19 -13 -10 -34 -21 -46 -25 -11 -4 -27 -13 -33 -21 -7 -8 -20 -15 -30 -15 -9
0 -25 -9 -35 -20 -10 -11 -26 -20 -35 -20 -32 0 -173 -122 -357 -307 -101
-101 -183 -188 -183 -194 0 -21 -134 -179 -152 -179 -6 0 -21 9 -35 20 -14 11
-35 20 -46 20 -11 0 -28 7 -37 15 -10 9 -35 19 -56 22 -22 3 -50 14 -63 25
-13 10 -39 18 -58 18 -18 0 -44 6 -56 14 -12 8 -38 17 -57 20 -25 4 -51 21
-83 54 -47 48 -47 48 -4 90 24 24 88 65 149 96 127 64 168 92 168 113 0 8 9
26 20 40 11 14 20 31 20 38 0 7 7 19 16 26 9 7 20 22 26 34 5 11 20 38 33 60
14 22 30 51 37 65 7 14 36 58 63 99 71 104 105 171 105 207 0 18 8 38 20 49
11 10 20 24 20 30 0 7 9 24 20 38 11 14 20 30 20 36 0 12 14 33 82 125 21 28
38 56 38 62 0 6 9 33 21 59 19 43 21 71 25 318 3 148 9 278 14 288 6 10 10
146 10 316 0 164 5 359 12 433 13 154 -2 388 -28 424 -8 11 -14 30 -14 41 0
11 -9 37 -20 58 -11 20 -20 45 -20 56 0 10 -9 30 -20 44 -11 14 -20 31 -20 39
0 7 -9 27 -20 43 -11 17 -20 42 -20 57 0 14 -12 49 -26 77 -25 47 -25 53 -14
100 13 54 8 85 -20 116 -30 34 -70 111 -70 133 0 19 -6 22 -44 22 -26 0 -48 6
-56 15 -7 8 -18 15 -24 15 -7 0 -29 9 -51 20 -22 11 -44 20 -51 20 -6 0 -17 7
-24 15 -18 21 -95 62 -132 70 -18 4 -43 13 -55 21 -28 17 -126 35 -213 38 -64
3 -181 24 -250 47 -43 13 -334 19 -610 10z" fill="#ffffff"/></g>
  <g transform="translate(0.000000,900.000000) scale(0.100000,-0.100000)"><path d="M4080 8841 c-205 -6 -205 -6 -282 -43 -42 -21 -79 -42 -83 -48 -3 -6
-21 -17 -38 -25 -18 -8 -52 -28 -77 -44 -25 -16 -54 -30 -66 -30 -11 -1 -35
-12 -54 -26 -19 -14 -42 -25 -51 -25 -10 0 -20 -4 -23 -9 -3 -5 -32 -24 -63
-42 -32 -17 -62 -38 -68 -45 -5 -7 -32 -24 -59 -38 -51 -27 -142 -105 -163
-141 -7 -11 -12 -34 -13 -52 0 -19 -10 -44 -26 -62 -33 -39 -41 -111 -25 -229
9 -67 9 -105 -1 -167 -7 -44 -13 -163 -13 -265 -1 -111 -6 -205 -14 -235 -9
-36 -13 -161 -13 -435 0 -370 1 -387 21 -430 11 -25 21 -66 21 -91 0 -25 9
-88 21 -140 18 -86 20 -129 20 -489 1 -395 1 -395 -25 -444 -14 -27 -26 -55
-26 -61 0 -7 -7 -26 -15 -41 -9 -17 -15 -56 -15 -94 0 -60 -4 -70 -45 -135
-25 -38 -49 -71 -54 -73 -9 -3 -224 166 -246 193 -19 23 -117 95 -129 95 -7 0
-21 9 -31 20 -10 11 -26 20 -35 20 -9 0 -25 9 -35 20 -10 11 -26 20 -35 20 -9
0 -25 9 -35 20 -10 11 -27 20 -37 20 -11 0 -31 9 -45 20 -14 11 -36 20 -49 20
-13 0 -41 9 -61 20 -26 14 -57 20 -103 20 -41 1 -72 6 -84 15 -25 19 -67 19
-113 0 -19 -8 -51 -15 -69 -15 -26 0 -43 -9 -74 -40 -22 -22 -40 -46 -40 -53
0 -7 -9 -20 -20 -30 -12 -10 -20 -29 -20 -48 0 -17 -9 -42 -20 -56 -12 -15
-20 -41 -20 -62 0 -21 -5 -42 -11 -48 -22 -22 6 -354 34 -397 9 -14 17 -42 17
-63 0 -21 9 -58 20 -82 11 -24 20 -56 20 -71 0 -15 9 -38 19 -52 11 -13 23
-37 26 -51 4 -15 11 -27 16 -27 4 0 14 -11 21 -24 20 -36 91 -140 101 -147 5
-4 14 -15 20 -27 20 -34 91 -136 102 -147 6 -5 24 -30 41 -55 16 -24 36 -52
45 -61 9 -8 51 -60 95 -115 43 -54 100 -123 126 -152 27 -30 64 -77 83 -105
19 -29 49 -67 67 -86 17 -19 50 -60 73 -92 63 -90 161 -202 200 -228 43 -29
65 -68 65 -115 0 -19 5 -38 10 -41 6 -3 10 -39 10 -78 0 -40 7 -97 16 -127 9
-30 20 -84 26 -120 5 -36 16 -75 24 -88 11 -17 17 -63 21 -155 3 -73 10 -140
15 -150 5 -10 14 -62 19 -114 6 -53 15 -106 22 -117 6 -12 14 -61 17 -111 4
-51 13 -105 22 -125 13 -28 18 -77 21 -235 3 -159 7 -208 20 -237 14 -32 17
-75 17 -276 0 -224 1 -241 20 -265 11 -14 20 -36 20 -50 0 -13 9 -36 20 -50
11 -14 20 -32 20 -39 0 -20 31 -57 115 -139 39 -38 77 -69 85 -69 9 0 23 -9
33 -20 9 -11 28 -20 42 -20 14 0 56 -8 93 -18 79 -22 233 -19 253 4 6 8 24 14
38 14 39 0 109 57 117 94 3 17 15 57 25 88 11 32 19 85 19 121 0 37 6 77 15
95 9 16 18 61 21 99 4 37 15 86 25 109 10 22 19 52 19 67 0 14 9 49 20 77 11
28 20 59 20 69 0 9 10 27 23 38 18 17 39 22 113 25 64 3 99 9 117 21 15 10 46
17 71 17 54 0 66 -16 66 -87 0 -27 6 -55 12 -61 7 -7 15 -46 19 -87 4 -49 12
-81 22 -93 10 -10 17 -32 17 -49 0 -17 9 -42 20 -56 11 -14 20 -37 20 -51 0
-14 9 -34 20 -43 11 -10 20 -30 20 -45 0 -16 9 -36 20 -45 11 -10 20 -27 20
-39 0 -26 76 -127 121 -160 28 -21 44 -24 111 -24 51 0 89 -5 108 -15 27 -14
34 -14 66 0 20 8 62 15 94 15 42 0 64 5 83 20 14 11 34 20 45 20 10 0 27 9 37
20 10 11 23 20 29 20 17 1 126 106 126 123 0 7 9 22 20 32 11 10 20 25 20 34
0 9 9 24 20 34 11 9 20 28 20 42 0 14 9 38 19 53 13 19 21 51 24 104 3 42 10
86 17 97 6 12 13 67 17 124 4 69 11 110 22 127 14 22 16 100 19 750 3 600 6
732 18 768 19 59 20 319 0 367 -31 74 -39 63 219 322 132 132 260 253 284 268
49 30 139 120 191 191 19 26 66 79 103 118 86 89 137 150 137 164 0 6 11 23
25 38 14 15 25 31 25 36 0 6 9 21 20 35 11 14 20 32 20 40 0 8 9 26 20 40 11
14 20 38 20 53 0 15 7 33 15 40 8 7 17 28 21 49 4 20 15 47 25 60 11 13 19 34
19 47 0 13 9 38 20 56 11 18 20 48 20 66 0 18 8 44 17 59 22 33 24 185 3 223
-8 14 -17 49 -21 78 -4 30 -15 62 -23 71 -9 10 -16 24 -16 32 0 26 -104 119
-134 119 -12 1 -32 7 -46 15 -33 19 -131 19 -156 0 -10 -8 -34 -15 -52 -15
-20 0 -39 -8 -49 -20 -10 -11 -25 -20 -35 -20 -10 0 -26 -9 -35 -20 -10 -11
-27 -20 -39 -20 -11 0 -29 -9 -39 -20 -10 -11 -26 -20 -36 -20 -10 0 -26 -8
-36 -18 -10 -10 -38 -31 -62 -47 -63 -42 -491 -472 -491 -493 0 -3 -10 -16
-21 -28 -12 -13 -24 -38 -28 -56 -5 -26 -12 -34 -34 -36 -16 -2 -38 5 -53 17
-15 12 -36 21 -47 21 -11 0 -28 7 -37 15 -10 9 -35 19 -56 22 -22 3 -50 14
-63 25 -13 10 -40 18 -60 18 -21 0 -42 5 -48 11 -6 6 -37 17 -69 23 -67 13
-87 35 -60 64 9 11 68 45 129 77 141 70 188 103 206 140 8 17 18 37 23 45 5 8
15 29 23 47 8 17 20 35 25 38 6 4 16 17 21 28 6 12 21 40 34 62 14 22 30 51
37 65 7 14 36 58 63 99 71 104 105 171 105 207 0 18 8 38 20 49 11 10 20 24
20 30 0 7 9 24 20 38 11 14 20 30 20 36 0 12 14 33 82 125 21 28 38 56 38 62
0 6 9 33 21 59 19 43 21 71 25 318 3 148 9 278 14 288 6 10 10 146 10 316 0
164 5 359 12 433 13 154 -2 388 -28 424 -8 11 -14 30 -14 41 0 11 -9 37 -20
58 -11 20 -20 45 -20 56 0 10 -9 30 -20 44 -11 14 -20 31 -20 39 0 7 -9 27
-20 43 -11 17 -20 42 -20 57 0 14 -12 49 -26 76 -24 47 -25 53 -14 104 13 61
9 74 -46 153 -19 28 -37 60 -39 73 -3 12 -7 33 -10 47 -6 30 -39 45 -94 45
-22 0 -44 6 -51 15 -7 8 -18 15 -24 15 -7 0 -29 9 -51 20 -22 11 -45 20 -52
20 -7 0 -21 8 -31 18 -27 27 -86 59 -123 67 -19 4 -44 13 -56 21 -28 17 -126
35 -213 38 -64 3 -181 24 -250 47 -43 13 -334 19 -610 10z m1065 -523 c36 -43
36 -43 155 -46 120 -4 120 -4 149 29 30 32 30 32 63 -7 18 -21 68 -73 111
-116 80 -77 110 -129 124 -215 3 -17 14 -39 24 -49 10 -9 19 -25 19 -34 0 -10
9 -29 20 -43 12 -15 20 -40 20 -61 0 -21 9 -49 21 -65 19 -25 20 -41 20 -227
-1 -621 -6 -879 -20 -903 -10 -19 -13 -74 -13 -235 1 -299 -15 -415 -69 -472
-10 -11 -19 -24 -19 -29 0 -5 -9 -18 -19 -29 -18 -20 -66 -100 -93 -156 -7
-14 -20 -36 -30 -49 -11 -14 -18 -41 -18 -68 0 -29 -5 -46 -14 -49 -8 -3 -20
-18 -26 -32 -19 -48 -39 -77 -52 -77 -10 0 -12 26 -10 110 3 110 3 110 -28
153 -18 23 -39 42 -48 42 -27 0 -73 57 -84 102 -11 52 -2 113 23 154 23 39 25
122 3 179 -9 22 -22 79 -29 127 -7 48 -19 104 -25 123 -9 28 -9 43 1 67 10 25
10 34 -5 59 -26 44 -11 54 77 54 59 -1 80 -5 96 -19 13 -12 42 -20 87 -24 57
-4 69 -2 81 13 16 23 18 167 3 196 -9 16 -7 21 14 28 32 13 41 29 25 48 -18
21 -182 15 -219 -9 -16 -10 -56 -18 -108 -20 -75 -4 -84 -3 -98 16 -8 11 -14
37 -14 56 0 20 -4 40 -8 45 -5 6 -6 51 -3 100 6 84 7 90 29 93 13 2 30 -2 38
-9 28 -23 26 0 -3 38 -44 55 -63 97 -63 137 0 36 -15 113 -31 154 -5 13 -17
22 -30 22 -20 0 -21 -3 -14 -62 7 -59 11 -257 6 -323 -4 -48 6 -165 19 -230 6
-33 13 -80 15 -105 2 -25 9 -67 15 -95 6 -27 13 -79 15 -115 2 -36 9 -96 15
-135 6 -38 14 -97 18 -130 5 -33 15 -73 24 -90 21 -40 33 -160 18 -170 -7 -4
-18 -21 -25 -39 -12 -28 -19 -32 -76 -41 -60 -10 -63 -12 -92 -58 -23 -39 -27
-50 -17 -62 16 -20 35 -19 103 3 58 20 77 15 77 -17 0 -27 87 -103 143 -124
19 -7 23 -49 18 -184 -3 -64 -1 -72 18 -82 28 -16 27 -23 -14 -82 -20 -27 -40
-60 -46 -72 -6 -12 -20 -38 -32 -59 -58 -96 -87 -148 -87 -156 0 -14 -71 -59
-104 -66 -16 -4 -61 -23 -100 -42 -39 -20 -95 -42 -124 -49 -61 -16 -74 -25
-129 -85 -51 -57 -58 -84 -22 -88 19 -2 33 5 48 24 12 15 31 34 41 41 18 13
21 11 32 -13 7 -15 24 -40 38 -56 22 -25 31 -28 84 -28 40 0 65 -5 76 -15 10
-9 35 -19 56 -22 22 -3 50 -14 63 -25 13 -10 37 -18 53 -18 17 0 41 -9 55 -20
14 -11 38 -20 54 -20 15 0 32 -7 37 -16 6 -10 24 -17 48 -18 32 -1 40 3 52 27
7 15 17 27 21 27 5 0 12 12 16 27 3 15 32 59 62 97 55 68 397 416 408 416 4 0
27 18 53 39 26 21 57 42 69 45 11 4 24 13 27 21 3 8 16 15 29 15 13 0 32 9 42
20 10 11 26 20 37 20 10 0 26 9 35 20 10 11 29 20 44 20 14 0 38 9 52 20 35
28 125 27 186 -1 50 -24 111 -76 111 -95 0 -6 6 -17 14 -23 8 -7 17 -34 21
-61 4 -27 13 -54 21 -61 10 -8 14 -38 14 -115 0 -85 -4 -111 -20 -141 -11 -21
-20 -54 -20 -74 0 -20 -7 -42 -15 -49 -8 -7 -18 -30 -21 -51 -4 -21 -13 -44
-20 -50 -7 -6 -16 -27 -20 -48 -4 -20 -15 -47 -25 -60 -11 -13 -19 -33 -19
-43 0 -11 -9 -31 -20 -45 -11 -14 -20 -32 -20 -39 0 -26 -124 -195 -206 -281
-47 -48 -93 -99 -102 -113 -39 -60 -121 -143 -175 -176 -23 -15 -140 -125
-259 -246 -120 -121 -222 -217 -228 -213 -5 3 -10 35 -10 70 0 49 -4 64 -17
69 -27 11 -38 -12 -36 -72 1 -31 4 -95 5 -142 2 -47 9 -95 16 -107 19 -33 17
-329 -3 -376 -12 -30 -15 -100 -16 -389 -2 -602 -15 -1108 -29 -1158 -7 -25
-14 -79 -17 -120 -2 -41 -8 -84 -13 -95 -14 -33 -30 -111 -30 -150 0 -22 -8
-47 -20 -62 -11 -14 -20 -36 -20 -50 0 -13 -7 -26 -15 -29 -8 -3 -17 -15 -21
-26 -19 -63 -135 -178 -178 -178 -7 0 -21 -8 -30 -19 -10 -11 -37 -21 -69 -25
-29 -4 -63 -8 -77 -10 -14 -2 -37 -9 -52 -16 -23 -11 -33 -11 -55 0 -16 8 -48
15 -73 16 -87 5 -114 15 -162 62 -28 27 -48 55 -48 68 0 11 -9 29 -20 39 -11
10 -20 28 -20 40 0 12 -9 34 -20 48 -11 14 -20 34 -20 45 0 10 -9 31 -20 45
-11 14 -20 38 -20 55 0 16 -9 41 -20 55 -11 14 -20 40 -20 57 0 36 -19 110
-32 124 -4 6 -8 42 -8 81 0 68 -2 73 -34 104 -32 31 -38 33 -81 28 -26 -4 -56
-14 -68 -22 -16 -11 -49 -15 -125 -15 -96 0 -104 -2 -125 -24 -57 -64 -67 -81
-67 -115 0 -20 -9 -56 -20 -80 -11 -24 -20 -59 -20 -77 0 -19 -8 -46 -17 -60
-11 -17 -18 -54 -21 -107 -3 -50 -10 -88 -18 -98 -8 -9 -17 -52 -21 -108 -7
-101 -39 -184 -78 -205 -11 -5 -33 -19 -48 -29 -25 -16 -46 -18 -165 -16 -115
2 -141 6 -161 21 -13 10 -33 18 -43 18 -34 0 -208 155 -208 186 0 6 -9 23 -20
37 -11 14 -20 32 -20 40 0 8 -8 25 -18 38 -22 28 -34 117 -32 234 2 141 2 159
1 228 -1 38 -8 81 -15 95 -10 19 -15 85 -18 232 -4 155 -8 213 -20 240 -9 19
-19 75 -22 124 -4 51 -14 98 -22 110 -8 12 -14 45 -14 81 -1 33 -8 78 -17 100
-10 26 -17 87 -20 180 -4 110 -9 148 -24 177 -11 21 -19 55 -19 77 0 22 -9 64
-19 93 -11 29 -22 94 -26 143 -4 54 -12 100 -22 114 -12 19 -13 28 -4 49 8 17
9 34 3 51 -6 14 -15 45 -21 68 -10 35 -15 41 -35 40 -18 -2 -50 24 -130 101
-58 57 -106 109 -106 117 0 8 -8 22 -18 32 -10 10 -49 56 -86 103 -36 47 -72
92 -80 100 -7 8 -60 74 -117 145 -58 72 -118 144 -133 160 -15 17 -44 55 -64
85 -20 30 -42 59 -49 63 -7 4 -13 14 -13 22 0 7 -17 35 -38 62 -20 26 -51 68
-67 93 -16 25 -47 67 -67 93 -21 27 -38 55 -38 62 0 7 -7 15 -15 19 -9 3 -15
18 -15 38 0 18 -9 48 -20 66 -12 19 -20 50 -20 75 0 23 -9 59 -20 80 -12 22
-20 56 -20 84 0 27 -9 68 -20 92 -25 54 -28 177 -5 220 8 16 17 48 21 72 4 24
15 55 26 68 10 13 18 32 18 42 0 20 53 100 73 110 7 3 44 14 84 24 75 19 73
20 189 -16 17 -5 47 -9 67 -9 20 0 51 -9 69 -20 18 -11 42 -20 54 -20 11 0 29
-9 39 -20 10 -11 28 -20 40 -20 12 0 30 -9 40 -20 10 -11 26 -20 36 -20 10 0
21 -5 25 -11 3 -6 22 -17 40 -25 19 -8 34 -18 34 -23 0 -6 10 -13 22 -17 26
-8 129 -89 141 -110 4 -8 14 -14 22 -14 8 0 18 -6 22 -12 4 -7 35 -35 68 -62
83 -69 104 -96 105 -133 0 -17 5 -35 10 -38 19 -12 50 6 56 33 7 33 9 37 39
87 14 22 32 54 41 70 8 17 22 41 29 55 9 14 15 53 15 90 1 43 7 79 20 105 11
22 19 45 20 52 0 6 9 27 20 46 20 34 21 47 17 454 -3 281 -8 434 -16 468 -7
28 -16 88 -21 135 -4 47 -15 102 -24 123 -15 33 -16 86 -13 445 3 397 9 481
34 489 16 6 50 -50 64 -102 6 -22 17 -52 25 -67 8 -14 14 -32 14 -38 0 -7 14
-34 32 -61 25 -38 40 -51 70 -60 50 -13 100 2 128 39 79 103 98 134 118 185
12 33 22 69 22 81 0 12 7 46 15 76 9 30 21 78 29 105 7 28 18 60 24 72 7 12
16 67 20 121 9 100 9 100 59 164 28 34 58 80 68 100 18 40 87 108 108 108 7 0
30 9 52 20 22 11 45 20 52 20 8 0 25 7 38 16 20 13 72 18 257 25 256 11 291
17 393 78 60 36 60 36 220 36 151 0 162 1 189 23 41 31 60 28 101 -20z m270
-1658 c0 -45 0 -45 -60 -45 -56 0 -60 2 -69 27 -8 22 -6 32 9 48 15 17 29 20
69 18 51 -3 51 -3 51 -48z m171 -61 c9 -16 -12 -33 -31 -25 -14 5 -15 9 -5 21
15 18 26 19 36 4z M4524 7866 c-8 -22 3 -49 19 -43 6 2 12 14 12 27 0 27 -22
39 -31 16z M4556 7794 c-3 -9 4 -24 19 -38 14 -13 25 -33 25 -44 0 -12 9 -26
20 -32 14 -7 20 -21 20 -45 0 -43 9 -65 26 -65 10 0 14 15 14 55 0 30 -4 55
-10 55 -5 0 -16 14 -25 30 -9 17 -22 30 -30 30 -10 0 -15 10 -15 29 0 17 -6
31 -16 35 -21 8 -21 8 -28 -10z M5205 7780 c-3 -6 -3 -20 0 -31 6 -19 9 -20
22 -6 9 9 13 23 10 31 -7 18 -23 21 -32 6z M5171 7596 c-17 -20 -10 -81 9 -81
10 0 16 12 18 39 4 44 -9 64 -27 42z M4345 7554 c-22 -8 -61 -22 -87 -30 -26
-8 -50 -19 -53 -24 -3 -6 -16 -10 -27 -10 -19 0 -37 -7 -128 -48 -14 -7 -32
-16 -40 -22 -8 -5 -26 -15 -40 -20 -14 -6 -56 -31 -95 -55 -38 -25 -81 -50
-95 -56 -40 -17 -60 -40 -60 -69 0 -48 80 -81 110 -45 7 8 18 15 25 15 7 0 24
9 38 20 14 11 32 20 40 20 8 0 20 7 28 16 7 9 29 24 48 34 94 49 161 80 172
80 6 0 25 6 42 14 50 22 128 46 182 58 61 12 85 32 85 70 0 61 -61 84 -145 52z
M5312 7535 c-18 -15 -32 -35 -32 -44 0 -26 34 -52 77 -62 21 -4 71 -15 112
-23 41 -9 81 -22 90 -30 9 -7 41 -26 71 -41 30 -15 73 -43 96 -61 23 -19 48
-34 56 -34 21 0 58 43 58 68 0 29 -73 102 -125 125 -22 10 -47 22 -55 27 -52
33 -125 62 -190 76 -129 28 -124 28 -158 -1z M4680 7480 c0 -56 3 -72 16 -77
23 -9 32 13 26 65 -11 102 -42 111 -42 12z M4710 7222 c-44 -29 -55 -62 -20
-62 13 0 25 12 35 37 8 20 14 37 13 38 -2 2 -14 -4 -28 -13z M4625 7149 c-10
-15 1 -23 20 -15 9 3 13 10 10 16 -8 13 -22 13 -30 -1z M4732 7013 c-6 -10
-13 -57 -17 -103 -4 -47 -14 -100 -21 -119 -8 -19 -17 -59 -20 -90 -4 -31 -15
-70 -25 -87 -11 -17 -19 -48 -19 -67 0 -22 -10 -51 -25 -73 -14 -21 -28 -49
-30 -63 -3 -14 -10 -45 -15 -69 -6 -23 -10 -73 -10 -110 -1 -37 -8 -85 -16
-107 -9 -22 -19 -76 -24 -120 -10 -101 -23 -129 -77 -166 -57 -38 -146 -41
-208 -7 -33 18 -55 22 -123 21 -77 -1 -86 -3 -112 -28 -36 -34 -81 -121 -74
-140 13 -32 41 -15 71 43 28 54 33 58 79 68 54 11 103 4 170 -27 79 -37 210
-15 252 43 32 44 48 42 113 -12 50 -41 67 -51 93 -48 47 5 47 38 -2 71 -21 15
-43 27 -48 27 -6 0 -25 16 -44 35 -28 29 -31 37 -20 50 7 8 25 15 41 15 60 0
106 44 74 70 -10 8 -19 8 -35 0 -11 -6 -35 -10 -53 -8 -27 2 -33 8 -35 31 -2
16 4 47 13 70 10 23 21 89 25 147 8 93 13 113 44 172 20 37 36 81 36 99 0 17
8 46 19 63 10 17 22 58 25 91 4 33 13 74 21 90 12 27 23 110 28 215 2 29 -2
36 -20 38 -13 2 -25 -4 -31 -15z M4025 6868 c-28 -16 -35 -28 -35 -68 0 -19
-4 -41 -9 -49 -12 -19 1 -52 33 -84 14 -15 26 -30 26 -35 0 -18 28 -21 76 -6
27 8 53 19 58 24 13 13 253 13 261 1 3 -5 18 -12 34 -16 16 -3 35 -13 42 -21
25 -30 59 -11 59 34 0 8 8 24 18 35 16 19 16 20 -2 31 -11 6 -27 19 -37 28
-10 10 -31 20 -46 24 -16 4 -35 12 -43 19 -8 7 -26 16 -40 20 -14 4 -32 13
-40 20 -28 25 -75 37 -160 40 -47 2 -105 6 -130 10 -26 3 -53 0 -65 -7z m139
-105 c-1 -55 -17 -73 -65 -73 -33 0 -41 4 -49 26 -14 36 -13 42 15 70 20 20
34 25 63 22 37 -3 37 -4 36 -45z m331 -62 c3 -5 1 -13 -5 -16 -15 -9 -43 3
-35 15 8 13 32 13 40 1z M4253 6548 c-13 -22 15 -29 110 -26 82 2 102 6 105
18 2 13 -13 16 -104 15 -58 0 -108 -3 -111 -7z M5352 6498 c5 -15 50 -22 85
-13 39 9 16 25 -38 25 -36 0 -49 -4 -47 -12z M4880 5922 c-70 -33 -118 -84
-102 -109 4 -5 44 -13 89 -17 79 -6 83 -5 107 19 34 34 33 58 -5 89 -30 26
-60 31 -89 18z M4160 5715 c-16 -19 3 -45 31 -45 23 0 199 -177 199 -200 0
-10 9 -29 20 -43 11 -14 20 -31 20 -39 0 -26 62 -77 136 -112 17 -8 36 -22 44
-30 7 -9 17 -16 22 -16 5 0 21 -9 35 -20 17 -13 41 -20 69 -20 23 0 46 -5 49
-10 4 -6 22 -17 41 -25 23 -9 34 -21 34 -34 0 -16 6 -21 24 -21 13 0 31 -3 40
-6 10 -4 26 5 43 25 15 17 35 31 44 31 9 0 24 9 34 20 10 11 23 20 30 20 7 0
20 9 30 20 10 11 23 20 30 20 7 0 20 9 30 20 10 11 24 20 31 20 15 0 124 119
124 135 0 7 11 29 26 50 30 44 31 111 1 129 -22 14 -37 -6 -37 -51 0 -35 -14
-51 -27 -30 -13 22 -83 54 -136 61 -38 6 -59 3 -103 -15 -54 -23 -54 -23 -77
-1 -13 12 -32 22 -43 22 -10 1 -30 7 -44 15 -29 17 -134 19 -200 4 -25 -6 -64
-14 -87 -18 -23 -4 -53 -15 -67 -24 -14 -9 -42 -17 -63 -17 -35 0 -46 9 -128
91 -107 108 -146 129 -175 94z m724 -196 c27 -10 57 -26 67 -35 20 -18 88 -12
124 12 23 15 100 13 131 -4 12 -6 27 -18 34 -28 13 -14 11 -19 -9 -35 -21 -17
-42 -19 -239 -18 -186 1 -221 3 -252 18 -19 10 -60 21 -90 25 -58 8 -105 30
-95 46 4 6 16 10 28 11 12 0 38 6 57 13 50 19 185 16 244 -5z m-342 -89 c35
-16 83 -32 108 -36 25 -4 57 -13 72 -20 18 -10 91 -15 250 -18 253 -6 267 -12
153 -65 -12 -5 -27 -16 -34 -25 -7 -9 -19 -16 -26 -16 -6 0 -20 -9 -30 -20
-10 -11 -26 -20 -35 -20 -10 0 -29 -9 -43 -20 -30 -23 -65 -26 -73 -5 -3 8
-16 17 -27 21 -12 4 -33 15 -46 25 -14 11 -40 19 -62 19 -29 0 -54 10 -96 40
-32 22 -65 40 -73 40 -31 1 -129 108 -113 124 9 8 6 9 75 -24z M3514 5575 c-3
-8 -3 -19 1 -25 4 -6 6 -81 6 -168 -1 -156 -1 -156 -29 -178 -25 -21 -26 -24
-10 -40 14 -14 20 -15 32 -4 9 7 16 18 16 25 0 7 7 18 15 25 12 10 15 44 15
184 0 120 -4 176 -12 184 -16 16 -27 15 -34 -3z M3940 5542 c0 -26 61 -102 82
-102 22 0 25 42 4 59 -8 7 -17 23 -20 36 -5 20 -13 25 -36 25 -22 0 -30 -5
-30 -18z M4734 5065 c-9 -23 3 -30 33 -19 33 11 32 28 -2 32 -16 2 -27 -2 -31
-13z M4980 5067 c0 -17 34 -67 43 -64 17 5 21 36 7 52 -11 13 -50 22 -50 12z
M3476 4865 c-11 -8 -29 -15 -41 -15 -19 0 -89 -61 -137 -119 -22 -26 -23 -47
-2 -55 18 -7 64 18 64 34 0 21 67 77 105 88 49 14 101 54 91 70 -10 17 -57 14
-80 -3z" fill="#1a1a1f"/></g>
</svg>
