<?xml version="1.0" encoding="UTF-8" standalone="no"?><!DOCTYPE svg PUBLIC "-//W3C//DTD SVG 1.1//EN" "http://www.w3.org/Graphics/SVG/1.1/DTD/svg11.dtd"><svg width="100%" height="100%" viewBox="0 0 2674 358" version="1.1" xmlns="http://www.w3.org/2000/svg" xmlns:xlink="http://www.w3.org/1999/xlink" xml:space="preserve" xmlns:serif="http://www.serif.com/" style="fill-rule:evenodd;clip-rule:evenodd;stroke-linejoin:round;stroke-miterlimit:2;"><g id="lockup4-icon"><g><g id="container"><g><path d="M338.196,88.049c-0,-38.092 -30.926,-69.02 -69.02,-69.02l-200.156,0c-38.092,0 -69.02,30.928 -69.02,69.02l-0,200.156c-0,38.094 30.928,69.02 69.02,69.02l200.156,0c38.094,0 69.02,-30.926 69.02,-69.02l-0,-200.156Z" style="fill:#fff;"/></g></g></g></g><g><g id="line1"><path d="M456.609,326.326c33.848,11.572 68.997,17.358 105.449,17.358c33.847,-0 59.956,-6.944 78.326,-20.83c18.371,-13.886 27.556,-33.992 27.556,-60.318c-0,-20.829 -5.497,-37.898 -16.49,-51.205c-10.993,-13.308 -29.364,-22.421 -55.111,-27.339l-24.735,-4.773c-10.704,-2.315 -18.081,-4.774 -22.131,-7.377c-4.05,-2.604 -6.075,-6.365 -6.075,-11.283c-0,-9.257 7.232,-13.886 21.697,-13.886c7.522,0 13.235,1.519 17.141,4.556c3.905,3.038 5.858,7.45 5.858,13.236l0,4.339l65.96,0l-0,-60.318c-24.88,-12.15 -55.401,-18.226 -91.563,-18.226c-32.401,0 -58.148,6.943 -77.242,20.83c-19.093,13.886 -28.64,33.413 -28.64,58.582c0,43.394 22.71,69.142 68.129,77.242l21.698,3.906c11.282,2.025 19.165,4.484 23.649,7.377c4.485,2.893 6.727,7.232 6.727,13.018c-0,10.704 -7.811,16.056 -23.433,16.056c-17.647,-0 -26.471,-6.943 -26.471,-20.829l0,-4.34l-70.299,0l0,64.224Z" style="fill:#fff;fill-rule:nonzero;"/><path d="M708.212,321.335c15.478,14.899 38.549,22.349 69.214,22.349c14.176,-0 28.134,-1.375 41.876,-4.123c13.741,-2.748 24.662,-5.713 32.763,-8.896l-0,-68.129c-13.019,2.604 -25.024,3.906 -36.018,3.906c-8.389,-0 -14.681,-2.242 -18.876,-6.727c-4.195,-4.484 -6.292,-11.499 -6.292,-21.046l-0,-71.167l58.582,0l-0,-71.166l-58.582,-0l-0,-51.206l-91.997,0l0,19.528c0,9.836 -2.748,17.574 -8.245,23.216c-5.496,5.641 -13.741,8.462 -24.734,8.462l-0,71.166l19.093,0l0,78.544c0,35.294 7.739,60.391 23.216,75.289Z" style="fill:#fff;fill-rule:nonzero;"/><path d="M1107.35,266.442l-19.093,-0l-0,-80.28c-0,-32.691 -9.258,-56.847 -27.773,-72.469c-18.515,-15.622 -49.325,-23.433 -92.43,-23.433c-17.068,0 -34.571,1.158 -52.507,3.472c-17.936,2.314 -34.571,5.352 -49.904,9.113l0,79.845c12.44,-4.628 26.109,-8.317 41.008,-11.065c14.899,-2.748 28.857,-4.123 41.876,-4.123c15.911,0 27.194,1.808 33.847,5.425c6.654,3.616 10.415,10.342 11.283,20.178c-92.864,1.447 -139.296,29.508 -139.296,84.185c-0,21.119 6.22,37.464 18.66,49.036c12.439,11.572 29.508,17.358 51.205,17.358c16.49,-0 30.448,-3.617 41.875,-10.849c11.428,-7.232 20.324,-15.477 26.688,-24.735l0,29.508l114.561,0l0,-71.166Zm-114.561,-30.377l0,2.604c0,11.572 -2.025,20.54 -6.075,26.905c-4.05,6.364 -9.836,9.546 -17.358,9.546c-5.497,0 -9.764,-1.518 -12.801,-4.556c-3.038,-3.038 -4.557,-7.015 -4.557,-11.933c0,-8.101 3.544,-13.887 10.632,-17.358c7.088,-3.472 17.141,-5.208 30.159,-5.208Z" style="fill:#fff;fill-rule:nonzero;"/><path d="M1142.63,311.355c23.144,21.552 55.4,32.329 96.77,32.329c19.093,-0 37.536,-1.736 55.328,-5.208c17.791,-3.471 31.605,-7.377 41.441,-11.716l0,-68.129c-31.822,5.207 -59.739,7.811 -83.751,7.811c-25.747,-0 -38.621,-11.283 -38.621,-33.848l0,-37.319c0,-18.515 8.39,-27.773 25.169,-27.773c8.679,0 15.043,2.242 19.093,6.726c4.05,4.485 6.076,11.5 6.076,21.047l-0,7.811l74.638,-0l-0,-85.921c-10.125,-6.943 -24.301,-13.163 -42.527,-18.66c-18.225,-5.496 -37.319,-8.245 -57.28,-8.245c-41.08,0 -73.192,10.777 -96.336,32.329c-23.143,21.553 -34.715,53.014 -34.715,94.383c-0,41.369 11.572,72.83 34.715,94.383Z" style="fill:#fff;fill-rule:nonzero;"/><path d="M1603.61,266.442l-41.658,-57.715l36.885,-41.225l17.792,0l-0,-71.166l-91.563,-0l-53.809,79.845l-10.414,0l-0,-176.181l-118.901,0l0,71.167l19.094,-0l-0,195.275l-19.094,-0l0,71.166l118.901,0l-0,-83.317l10.414,0l44.697,83.317l106.316,0l-0,-71.166l-18.66,-0Z" style="fill:#fff;fill-rule:nonzero;"/><path d="M1643.45,310.704c14.898,21.986 37.102,32.98 66.61,32.98c14.754,-0 27.845,-3.617 39.272,-10.849c11.427,-7.232 20.757,-15.477 27.989,-24.735l0,29.508l118.901,0l0,-71.166l-19.093,-0l-0,-266.442l-125.41,0l-0,71.167l25.602,-0l0,54.677c-7.232,-9.258 -16.562,-17.503 -27.989,-24.735c-11.427,-7.232 -24.518,-10.849 -39.272,-10.849c-29.508,0 -51.712,10.994 -66.61,32.98c-14.899,21.987 -22.348,53.231 -22.348,93.732c-0,40.501 7.449,71.745 22.348,93.732Zm127.579,-50.989c-4.195,4.485 -10.487,6.727 -18.876,6.727c-8.39,-0 -14.682,-2.242 -18.877,-6.727c-4.195,-4.484 -6.292,-11.499 -6.292,-21.046l-0,-43.394c-0,-9.547 2.097,-16.562 6.292,-21.047c4.195,-4.484 10.487,-6.726 18.877,-6.726c8.389,0 14.681,2.242 18.876,6.726c4.195,4.485 6.292,11.5 6.292,21.047l0,43.394c0,9.547 -2.097,16.562 -6.292,21.046Z" style="fill:#fff;fill-rule:nonzero;"/><path d="M1931.5,311.355c23.144,21.552 55.256,32.329 96.336,32.329c41.08,-0 73.192,-10.777 96.335,-32.329c23.144,-21.553 34.716,-53.014 34.716,-94.383c-0,-40.791 -11.427,-72.107 -34.282,-93.949c-22.854,-21.842 -55.111,-32.763 -96.769,-32.763c-41.08,0 -73.192,10.777 -96.336,32.329c-23.144,21.553 -34.715,53.014 -34.715,94.383c-0,41.369 11.571,72.83 34.715,94.383Zm115.212,-51.64c-4.195,4.485 -10.487,6.727 -18.876,6.727c-8.39,-0 -14.682,-2.242 -18.877,-6.727c-4.195,-4.484 -6.292,-11.499 -6.292,-21.046l-0,-43.394c-0,-9.547 2.097,-16.562 6.292,-21.047c4.195,-4.484 10.487,-6.726 18.877,-6.726c8.389,0 14.681,2.242 18.876,6.726c4.195,4.485 6.292,11.5 6.292,21.047l0,43.394c0,9.547 -2.097,16.562 -6.292,21.046Z" style="fill:#fff;fill-rule:nonzero;"/><path d="M2194.16,311.355c23.143,21.552 55.4,32.329 96.769,32.329c19.094,-0 37.536,-1.736 55.328,-5.208c17.792,-3.471 31.606,-7.377 41.442,-11.716l-0,-68.129c-31.823,5.207 -59.74,7.811 -83.751,7.811c-25.748,-0 -38.621,-11.283 -38.621,-33.848l-0,-37.319c-0,-18.515 8.389,-27.773 25.168,-27.773c8.679,0 15.044,2.242 19.094,6.726c4.05,4.485 6.075,11.5 6.075,21.047l0,7.811l74.638,-0l0,-85.921c-10.125,-6.943 -24.3,-13.163 -42.526,-18.66c-18.226,-5.496 -37.319,-8.245 -57.281,-8.245c-41.08,0 -73.192,10.777 -96.335,32.329c-23.144,21.553 -34.716,53.014 -34.716,94.383c0,41.369 11.572,72.83 34.716,94.383Z" style="fill:#fff;fill-rule:nonzero;"/><path d="M2655.14,266.442l-41.659,-57.715l36.885,-41.225l17.792,0l0,-71.166l-91.562,-0l-53.809,79.845l-10.415,0l0,-176.181l-118.9,0l-0,71.167l19.093,-0l0,195.275l-19.093,-0l-0,71.166l118.9,0l0,-83.317l10.415,0l44.696,83.317l106.316,0l0,-71.166l-18.659,-0Z" style="fill:#fff;fill-rule:nonzero;"/></g></g><g id="logomark"><g><g><path d="M290.177,198.218l-31.395,0l0,-48.139c0,-3.488 -2.093,-6.977 -5.232,-8.372c-3.489,-1.744 -7.326,-1.047 -10.117,1.395c-19.186,16.047 -52.325,16.396 -72.209,0c-3.488,-2.791 -8.372,-2.791 -11.861,0c-19.534,16.047 -52.325,16.396 -72.209,0c-3.488,-2.791 -8.372,-2.791 -11.86,0c-17.093,13.954 -43.954,15.698 -63.14,5.93l0,20.233c18.837,6.977 41.163,6.279 59.651,-2.442l0,31.395l-59.651,0l0,18.489l59.651,-0l0,34.535c2.791,1.395 5.931,2.442 9.419,2.442c3.488,-0 6.628,-1.047 9.419,-2.442l-0,-34.186l65.581,-0l-0,34.186c2.791,1.744 5.93,2.442 9.419,2.442c3.488,-0 6.627,-1.047 9.418,-2.442l0,-34.186l65.582,-0l-0,34.186c2.79,1.744 6.279,2.442 9.767,2.442c3.14,-0 6.279,-0.698 9.07,-2.093l-0,-34.535l31.395,-0c3.488,-0 6.279,-2.791 6.279,-6.279l0,-5.582c-0.698,-4.186 -3.488,-6.977 -6.977,-6.977Zm-134.302,0l-65.581,0l-0,-31.395c20.232,9.419 45.349,9.419 65.581,0l0,31.395Zm84.419,0l-65.582,0l0,-31.395c20.233,9.419 45.698,9.419 65.582,0l-0,31.395Z" style="fill-rule:nonzero;stroke:#000;stroke-width:4.17px;"/></g></g></g></svg>