<?xml version="1.0" encoding="UTF-8" standalone="no"?><!DOCTYPE svg PUBLIC "-//W3C//DTD SVG 1.1//EN" "http://www.w3.org/Graphics/SVG/1.1/DTD/svg11.dtd"><svg width="100%" height="100%" viewBox="0 0 11142 1492" version="1.1" xmlns="http://www.w3.org/2000/svg" xmlns:xlink="http://www.w3.org/1999/xlink" xml:space="preserve" xmlns:serif="http://www.serif.com/" style="fill-rule:evenodd;clip-rule:evenodd;stroke-linejoin:round;stroke-miterlimit:2;"><g id="lockup4-icon"><g><g id="container"><g><path d="M1409.15,366.871c0,-158.717 -128.858,-287.583 -287.583,-287.583l-833.984,-0c-158.716,-0 -287.583,128.866 -287.583,287.583l0,833.983c0,158.725 128.867,287.584 287.583,287.584l833.984,-0c158.725,-0 287.583,-128.859 287.583,-287.584l0,-833.983Z" style="fill:#fff;"/></g></g></g></g><g><g id="line1"><path d="M1902.54,1359.69c141.033,48.216 287.487,72.325 439.37,72.325c141.03,-0 249.817,-28.934 326.359,-86.792c76.546,-57.858 114.816,-141.633 114.816,-251.325c0,-86.787 -22.904,-157.908 -68.708,-213.354c-45.804,-55.45 -122.35,-93.421 -229.629,-113.913l-103.063,-19.887c-44.6,-9.646 -75.337,-19.892 -92.212,-30.738c-16.875,-10.85 -25.313,-26.52 -25.313,-47.012c0,-38.571 30.134,-57.858 90.405,-57.858c31.341,-0 55.145,6.329 71.42,18.983c16.271,12.658 24.409,31.042 24.409,55.15l-0,18.079l274.833,0l0,-251.325c-103.667,-50.625 -230.837,-75.942 -381.512,-75.942c-135.005,0 -242.284,28.93 -321.842,86.792c-79.554,57.858 -119.333,139.221 -119.333,244.092c-0,180.808 94.625,288.091 283.87,321.841l90.409,16.275c47.008,8.438 79.854,18.684 98.537,30.738c18.688,12.054 28.029,30.133 28.029,54.242c0,44.6 -32.545,66.9 -97.637,66.9c-73.529,-0 -110.296,-28.93 -110.296,-86.788l0,-18.083l-292.912,-0l-0,267.6Z" style="fill:#fff;fill-rule:nonzero;"/><path d="M2950.88,1338.9c64.492,62.079 160.621,93.121 288.392,93.121c59.067,-0 117.225,-5.73 174.483,-17.179c57.254,-11.45 102.759,-23.805 136.513,-37.067l-0,-283.871c-54.246,10.85 -104.267,16.275 -150.075,16.275c-34.954,-0 -61.171,-9.342 -78.65,-28.029c-17.479,-18.684 -26.217,-47.913 -26.217,-87.692l0,-296.529l244.092,-0l-0,-296.525l-244.092,-0l0,-213.358l-383.321,-0l0,81.366c0,40.984 -11.45,73.225 -34.354,96.734c-22.9,23.504 -57.254,35.258 -103.058,35.258l-0,296.525l79.554,-0l-0,327.267c-0,147.058 32.246,251.629 96.733,313.704Z" style="fill:#fff;fill-rule:nonzero;"/><path d="M4613.96,1110.17l-79.554,0l0,-334.5c0,-136.212 -38.575,-236.862 -115.721,-301.954c-77.146,-65.092 -205.521,-97.638 -385.125,-97.638c-71.116,0 -144.046,4.825 -218.779,14.467c-74.733,9.642 -144.046,22.3 -207.933,37.971l-0,332.687c51.833,-19.283 108.787,-34.654 170.866,-46.104c62.08,-11.45 120.238,-17.179 174.484,-17.179c66.296,0 113.308,7.533 141.029,22.604c27.725,15.067 43.396,43.092 47.012,84.075c-386.933,6.029 -580.4,122.95 -580.4,350.771c0,87.996 25.917,156.1 77.75,204.317c51.83,48.216 122.95,72.325 213.355,72.325c68.708,-0 126.866,-15.071 174.479,-45.204c47.616,-30.134 84.683,-64.488 111.2,-103.063l-0,122.95l477.337,0l0,-296.525Zm-477.337,-126.571l-0,10.85c-0,48.217 -8.438,85.584 -25.313,112.104c-16.875,26.517 -40.983,39.775 -72.325,39.775c-22.904,0 -40.683,-6.325 -53.337,-18.983c-12.659,-12.658 -18.988,-29.229 -18.988,-49.721c0,-33.754 14.767,-57.862 44.3,-72.325c29.534,-14.466 71.421,-21.7 125.663,-21.7Z" style="fill:#fff;fill-rule:nonzero;"/><path d="M4760.96,1297.31c96.434,89.8 230.834,134.704 403.209,134.704c79.554,-0 156.4,-7.234 230.533,-21.7c74.129,-14.463 131.688,-30.738 172.671,-48.817l-0,-283.871c-132.592,21.696 -248.913,32.546 -348.963,32.546c-107.279,0 -160.921,-47.013 -160.921,-141.033l0,-155.496c0,-77.146 34.959,-115.721 104.871,-115.721c36.163,-0 62.679,9.342 79.555,28.025c16.874,18.687 25.316,47.917 25.316,87.696l0,32.546l310.992,-0l-0,-358.005c-42.188,-28.929 -101.254,-54.845 -177.196,-77.75c-75.938,-22.9 -155.496,-34.354 -238.667,-34.354c-171.166,0 -304.966,44.904 -401.4,134.704c-96.429,89.805 -144.646,220.892 -144.646,393.263c0,172.371 48.217,303.458 144.646,393.262Z" style="fill:#fff;fill-rule:nonzero;"/><path d="M6681.71,1110.17l-173.575,-240.479l153.688,-171.771l74.133,0l0,-296.525l-381.512,0l-224.205,332.688l-43.391,-0l-0,-734.088l-495.421,0l-0,296.529l79.558,0l0,813.646l-79.558,0l-0,296.525l495.421,-0l-0,-347.154l43.391,-0l186.238,347.154l442.983,-0l0,-296.525l-77.75,0Z" style="fill:#fff;fill-rule:nonzero;"/><path d="M6847.71,1294.6c62.075,91.608 154.592,137.417 277.542,137.417c61.475,-0 116.021,-15.071 163.633,-45.204c47.613,-30.134 86.488,-64.488 116.621,-103.063l0,122.95l495.421,0l-0,-296.525l-79.554,0l-0,-1110.17l-522.542,0l0,296.529l106.675,0l0,227.821c-30.133,-38.575 -69.008,-72.929 -116.621,-103.063c-47.612,-30.133 -102.158,-45.204 -163.633,-45.204c-122.95,0 -215.467,45.809 -277.542,137.417c-62.079,91.612 -93.116,221.796 -93.116,390.55c-0,168.754 31.037,298.938 93.116,390.55Zm531.579,-212.454c-17.479,18.687 -43.695,28.029 -78.649,28.029c-34.959,0 -61.175,-9.342 -78.655,-28.029c-17.479,-18.683 -26.216,-47.913 -26.216,-87.692l-0,-180.808c-0,-39.779 8.737,-69.008 26.216,-87.696c17.48,-18.683 43.696,-28.025 78.655,-28.025c34.954,0 61.17,9.342 78.65,28.025c17.479,18.688 26.216,47.917 26.216,87.696l0,180.808c0,39.779 -8.737,69.009 -26.216,87.692Z" style="fill:#fff;fill-rule:nonzero;"/><path d="M8047.92,1297.31c96.433,89.8 230.233,134.704 401.4,134.704c171.166,-0 304.966,-44.904 401.395,-134.704c96.434,-89.805 144.65,-220.892 144.65,-393.263c0,-169.962 -47.612,-300.446 -142.841,-391.454c-95.225,-91.008 -229.629,-136.513 -403.204,-136.513c-171.167,0 -304.967,44.905 -401.4,134.705c-96.434,89.804 -144.646,220.891 -144.646,393.262c-0,172.371 48.212,303.458 144.646,393.263Zm480.05,-215.167c-17.479,18.687 -43.696,28.029 -78.65,28.029c-34.959,0 -61.175,-9.342 -78.655,-28.029c-17.479,-18.684 -26.216,-47.913 -26.216,-87.692l-0,-180.808c-0,-39.779 8.737,-69.009 26.217,-87.696c17.479,-18.683 43.695,-28.025 78.654,-28.025c34.954,0 61.171,9.342 78.65,28.025c17.479,18.688 26.216,47.917 26.216,87.696l0,180.808c0,39.779 -8.737,69.009 -26.216,87.692Z" style="fill:#fff;fill-rule:nonzero;"/><path d="M9142.33,1297.31c96.43,89.8 230.834,134.704 403.204,134.704c79.559,-0 156.401,-7.234 230.534,-21.7c74.133,-14.463 131.692,-30.738 172.675,-48.817l-0,-283.871c-132.596,21.696 -248.917,32.546 -348.963,32.546c-107.283,0 -160.921,-47.013 -160.921,-141.033l0.001,-155.496c-0.001,-77.146 34.954,-115.721 104.866,-115.721c36.163,-0 62.684,9.342 79.559,28.025c16.875,18.687 25.312,47.917 25.312,87.696l0,32.546l310.992,-0l-0,-358.005c-42.188,-28.929 -101.25,-54.845 -177.192,-77.75c-75.942,-22.9 -155.496,-34.354 -238.671,-34.354c-171.166,0 -304.966,44.904 -401.396,134.704c-96.433,89.805 -144.65,220.892 -144.65,393.263c0,172.371 48.217,303.458 144.65,393.262Z" style="fill:#fff;fill-rule:nonzero;"/><path d="M11063.1,1110.17l-173.579,-240.479l153.688,-171.771l74.133,0l0,-296.525l-381.508,0l-224.205,332.688l-43.395,-0l-0,-734.088l-495.417,0l-0,296.529l79.554,0l0,813.646l-79.554,0l-0,296.525l495.417,-0l-0,-347.154l43.395,-0l186.234,347.154l442.983,-0l0,-296.525l-77.746,0Z" style="fill:#fff;fill-rule:nonzero;"/></g></g><g id="logomark"><g><g><path d="M1163.24,834.242l-130.813,-0l0,-200.579c0,-14.534 -8.721,-29.071 -21.8,-34.884c-14.537,-7.266 -30.525,-4.362 -42.154,5.813c-79.942,66.862 -218.021,68.316 -300.871,-0c-14.533,-11.629 -34.883,-11.629 -49.421,-0c-81.391,66.862 -218.021,68.316 -300.871,-0c-14.533,-11.629 -34.883,-11.629 -49.416,-0c-71.221,58.141 -183.142,65.408 -263.084,24.708l0,84.304c78.488,29.071 171.513,26.163 248.546,-10.175l0,130.813l-248.546,-0l0,77.037l248.546,0l0,143.896c11.629,5.813 24.713,10.175 39.246,10.175c14.533,0 27.617,-4.362 39.246,-10.175l-0,-142.442l273.254,0l0,142.442c11.629,7.267 24.708,10.175 39.246,10.175c14.533,0 27.612,-4.362 39.242,-10.175l-0,-142.442l273.258,0l-0,142.442c11.625,7.267 26.162,10.175 40.696,10.175c13.083,0 26.162,-2.908 37.791,-8.721l0,-143.896l130.813,0c14.533,0 26.162,-11.629 26.162,-26.162l0,-23.258c-2.908,-17.442 -14.533,-29.071 -29.07,-29.071Zm-559.592,-0l-273.254,-0l-0,-130.813c84.3,39.246 188.954,39.246 273.254,0l-0,130.813Zm351.746,-0l-273.259,-0l0,-130.813c84.305,39.246 190.409,39.246 273.259,0l-0,130.813Z" style="fill-rule:nonzero;stroke:#000;stroke-width:17.38px;"/></g></g></g></svg>