<?xml version="1.0" encoding="UTF-8" standalone="no"?><!DOCTYPE svg PUBLIC "-//W3C//DTD SVG 1.1//EN" "http://www.w3.org/Graphics/SVG/1.1/DTD/svg11.dtd"><svg width="100%" height="100%" viewBox="0 0 2866 417" version="1.1" xmlns="http://www.w3.org/2000/svg" xmlns:xlink="http://www.w3.org/1999/xlink" xml:space="preserve" xmlns:serif="http://www.serif.com/" style="fill-rule:evenodd;clip-rule:evenodd;stroke-linejoin:round;stroke-miterlimit:2;"><g><g id="container"><g><path d="M380.843,92.08c0,-45.933 -34.729,-83.228 -77.509,-83.228l-224.773,0c-42.777,0 -77.509,37.295 -77.509,83.228l-0,241.359c-0,45.935 34.732,83.228 77.509,83.228l224.773,-0c42.78,-0 77.509,-37.293 77.509,-83.228l0,-241.359Z" style="fill:#fff;"/></g></g></g><g id="line1"><path d="M444.968,394.653c35.704,13.731 72.781,20.596 111.231,20.596c35.704,0 63.244,-8.239 82.622,-24.716c19.378,-16.477 29.067,-40.335 29.067,-71.573c-0,-24.715 -5.799,-44.969 -17.395,-60.759c-11.595,-15.791 -30.974,-26.605 -58.133,-32.441l-26.091,-5.663c-11.291,-2.747 -19.072,-5.665 -23.344,-8.754c-4.273,-3.089 -6.409,-7.552 -6.409,-13.388c0,-10.984 7.629,-16.477 22.887,-16.477c7.935,0 13.961,1.803 18.081,5.406c4.119,3.605 6.179,8.841 6.179,15.706l0,5.149l69.577,-0l0,-71.573c-26.244,-14.417 -58.439,-21.627 -96.584,-21.627c-34.177,0 -61.336,8.239 -81.477,24.717c-20.14,16.477 -30.211,39.647 -30.211,69.513c0,51.49 23.956,82.043 71.865,91.654l22.888,4.635c11.901,2.403 20.216,5.321 24.946,8.753c4.731,3.433 7.096,8.582 7.096,15.448c-0,12.701 -8.24,19.051 -24.718,19.051c-18.615,0 -27.923,-8.238 -27.923,-24.715l0,-5.15l-74.154,0l0,76.208Z" style="fill:#fff;fill-rule:nonzero;"/><path d="M710.367,388.732c16.327,17.679 40.663,26.519 73.009,26.519c14.954,0 29.677,-1.632 44.172,-4.892c14.495,-3.261 26.015,-6.779 34.56,-10.556l0,-80.841c-13.733,3.09 -26.396,4.635 -37.993,4.635c-8.849,-0 -15.486,-2.661 -19.911,-7.983c-4.425,-5.32 -6.637,-13.644 -6.637,-24.973l-0,-84.446l61.794,0l0,-84.444l-61.794,-0l-0,-60.761l-97.042,0l0,23.172c0,11.671 -2.899,20.853 -8.697,27.548c-5.797,6.693 -14.494,10.041 -26.09,10.041l-0,84.444l20.14,0l-0,93.2c-0,41.879 8.163,71.659 24.489,89.337Z" style="fill:#fff;fill-rule:nonzero;"/><path d="M1131.39,323.594l-20.14,-0l0,-95.259c0,-38.791 -9.766,-67.454 -29.296,-85.991c-19.53,-18.537 -52.03,-27.806 -97.498,-27.806c-18.004,0 -36.467,1.374 -55.387,4.12c-18.919,2.746 -36.466,6.351 -52.64,10.814l-0,94.743c13.122,-5.492 27.541,-9.869 43.256,-13.13c15.717,-3.261 30.44,-4.892 44.173,-4.892c16.783,-0 28.685,2.145 35.703,6.437c7.019,4.291 10.986,12.272 11.902,23.943c-97.957,1.717 -146.935,35.014 -146.935,99.893c0,25.06 6.561,44.454 19.683,58.186c13.122,13.731 31.126,20.597 54.013,20.597c17.395,-0 32.118,-4.292 44.172,-12.874c12.054,-8.581 21.438,-18.365 28.151,-29.35l0,35.014l120.843,-0l0,-84.445Zm-120.843,-36.045l0,3.09c0,13.731 -2.136,24.372 -6.408,31.925c-4.272,7.551 -10.375,11.327 -18.31,11.327c-5.798,0 -10.299,-1.801 -13.503,-5.406c-3.205,-3.605 -4.807,-8.324 -4.807,-14.16c0,-9.612 3.739,-16.478 11.215,-20.596c7.477,-4.12 18.081,-6.18 31.813,-6.18Z" style="fill:#fff;fill-rule:nonzero;"/><path d="M1168.61,376.888c24.413,25.573 58.438,38.361 102.076,38.361c20.14,0 39.595,-2.06 58.362,-6.18c18.767,-4.118 33.338,-8.753 43.714,-13.902l-0,-80.841c-33.567,6.179 -63.015,9.269 -88.344,9.269c-27.159,-0 -40.739,-13.389 -40.739,-40.164l0,-44.282c0,-21.97 8.85,-32.956 26.549,-32.956c9.155,0 15.868,2.661 20.14,7.981c4.272,5.322 6.409,13.646 6.409,24.975l0,9.268l78.731,0l0,-101.953c-10.68,-8.239 -25.633,-15.619 -44.859,-22.142c-19.224,-6.521 -39.365,-9.783 -60.421,-9.783c-43.332,-0 -77.205,12.788 -101.618,38.361c-24.412,25.575 -36.619,62.906 -36.619,111.994c-0,49.088 12.207,86.419 36.619,111.994l-0,-0Z" style="fill:#fff;fill-rule:nonzero;"/><path d="M1654.87,323.594l-43.943,-68.484l38.908,-48.917l18.768,-0l-0,-84.445l-96.584,0l-56.76,94.743l-10.985,0l0,-209.054l-125.421,-0l0,84.446l20.141,-0l0,231.711l-20.141,-0l0,84.445l125.421,-0l0,-98.863l10.985,-0l47.148,98.863l112.146,-0l0,-84.445l-19.683,-0Z" style="fill:#fff;fill-rule:nonzero;"/><path d="M1696.89,376.116c15.715,26.088 39.137,39.134 70.263,39.134c15.563,-0 29.372,-4.292 41.426,-12.873c12.053,-8.582 21.895,-18.365 29.523,-29.351l0,35.014l125.422,0l-0,-84.445l-20.14,0l-0,-316.155l-132.287,-0l-0,84.446l27.005,-0l0,64.879c-7.628,-10.986 -17.47,-20.769 -29.523,-29.351c-12.054,-8.581 -25.863,-12.873 -41.426,-12.873c-31.126,0 -54.548,13.046 -70.263,39.134c-15.715,26.089 -23.573,63.163 -23.573,111.221c0,48.058 7.858,85.132 23.573,111.222l0,-0.002Zm134.575,-60.503c-4.425,5.322 -11.062,7.982 -19.91,7.982c-8.851,0 -15.488,-2.66 -19.913,-7.982c-4.425,-5.32 -6.637,-13.644 -6.637,-24.973l0,-51.491c0,-11.328 2.212,-19.652 6.637,-24.974c4.425,-5.32 11.062,-7.981 19.913,-7.981c8.848,0 15.485,2.661 19.911,7.981c4.425,5.322 6.636,13.646 6.636,24.974l0,51.491c0,11.329 -2.211,19.653 -6.636,24.973l-0.001,0Z" style="fill:#fff;fill-rule:nonzero;"/><path d="M2000.74,376.888c24.413,25.573 58.286,38.361 101.619,38.361c43.332,0 77.205,-12.788 101.617,-38.361c24.414,-25.575 36.62,-62.906 36.62,-111.994c0,-48.402 -12.053,-85.561 -36.162,-111.479c-24.107,-25.917 -58.133,-38.876 -102.075,-38.876c-43.333,-0 -77.206,12.788 -101.619,38.361c-24.413,25.575 -36.618,62.906 -36.618,111.994c-0,49.088 12.205,86.419 36.618,111.994Zm121.53,-61.276c-4.425,5.322 -11.062,7.983 -19.911,7.983c-8.85,-0 -15.487,-2.661 -19.912,-7.983c-4.425,-5.32 -6.637,-13.644 -6.637,-24.973l-0,-51.49c-0,-11.329 2.212,-19.653 6.637,-24.975c4.425,-5.32 11.062,-7.981 19.912,-7.981c8.849,0 15.486,2.661 19.911,7.981c4.425,5.322 6.637,13.646 6.637,24.975l-0,51.49c-0,11.329 -2.212,19.653 -6.637,24.973Z" style="fill:#fff;fill-rule:nonzero;"/><path d="M2277.8,376.888c24.412,25.573 58.438,38.361 102.075,38.361c20.141,0 39.595,-2.06 58.362,-6.18c18.768,-4.118 33.34,-8.753 43.715,-13.902l-0,-80.841c-33.568,6.179 -63.016,9.269 -88.344,9.269c-27.16,-0 -40.739,-13.389 -40.739,-40.164l0.001,-44.282c-0.001,-21.97 8.849,-32.956 26.547,-32.956c9.156,0 15.87,2.661 20.142,7.981c4.272,5.322 6.408,13.646 6.408,24.975l-0,9.268l78.731,0l-0,-101.953c-10.681,-8.239 -25.633,-15.619 -44.858,-22.142c-19.226,-6.521 -39.366,-9.783 -60.423,-9.783c-43.332,-0 -77.205,12.788 -101.617,38.361c-24.413,25.575 -36.62,62.906 -36.62,111.994c0,49.088 12.207,86.419 36.62,111.994l-0,-0Z" style="fill:#fff;fill-rule:nonzero;"/><path d="M2764.06,323.594l-43.943,-68.484l38.907,-48.917l18.768,-0l0,-84.445l-96.583,0l-56.76,94.743l-10.986,0l0,-209.054l-125.42,-0l0,84.446l20.14,-0l0,231.711l-20.14,-0l0,84.445l125.42,-0l0,-98.863l10.986,-0l47.147,98.863l112.146,-0l0,-84.445l-19.682,-0Z" style="fill:#fff;fill-rule:nonzero;"/></g><g><g><path d="M314.566,213.355l-35.256,-0l-0,-54.333c-0,-3.937 -2.351,-7.875 -5.876,-9.45c-3.918,-1.968 -8.227,-1.181 -11.361,1.575c-21.546,18.112 -58.761,18.505 -81.09,-0c-3.917,-3.15 -9.402,-3.15 -13.32,-0c-21.937,18.112 -58.761,18.505 -81.091,-0c-3.916,-3.15 -9.401,-3.15 -13.318,-0c-19.195,15.749 -49.36,17.718 -70.906,6.693l0,22.836c21.154,7.875 46.226,7.087 66.988,-2.756l-0,35.435l-66.988,-0l0,20.867l66.988,0l-0,38.979c3.134,1.575 6.66,2.756 10.577,2.756c3.917,0 7.444,-1.181 10.578,-2.756l-0,-38.585l73.647,0l-0,38.585c3.134,1.968 6.659,2.756 10.577,2.756c3.917,0 7.442,-1.181 10.577,-2.756l-0,-38.585l73.648,0l-0,38.585c3.133,1.968 7.051,2.756 10.968,2.756c3.526,0 7.051,-0.788 10.185,-2.362l0,-38.979l35.257,0c3.917,0 7.051,-3.15 7.051,-7.087l-0,-6.3c-0.784,-4.724 -3.917,-7.874 -7.835,-7.874Zm-150.82,-0l-73.647,-0l-0,-35.435c22.72,10.631 50.926,10.631 73.647,-0l-0,35.435Zm94.802,-0l-73.648,-0l-0,-35.435c22.721,10.631 51.318,10.631 73.648,-0l-0,35.435Z" style="fill-rule:nonzero;stroke:#000;stroke-width:4.7px;"/></g></g><g transform="matrix(0.931155,0,0,1,-157.881,0)"><text x="3165.34px" y="40.308px" style="font-family:'Outfit-Bold', 'Outfit';font-weight:700;font-size:57.094px;fill:#fff;">TM</text></g></svg>