<?xml version="1.0" encoding="UTF-8" standalone="no"?><!DOCTYPE svg PUBLIC "-//W3C//DTD SVG 1.1//EN" "http://www.w3.org/Graphics/SVG/1.1/DTD/svg11.dtd"><svg width="100%" height="100%" viewBox="0 0 11942 1738" version="1.1" xmlns="http://www.w3.org/2000/svg" xmlns:xlink="http://www.w3.org/1999/xlink" xml:space="preserve" xmlns:serif="http://www.serif.com/" style="fill-rule:evenodd;clip-rule:evenodd;stroke-linejoin:round;stroke-miterlimit:2;"><g><g id="container"><g><path d="M1611.85,389.096c-0,-175.987 -144.704,-318.879 -322.954,-318.879l-936.555,-0c-178.237,-0 -322.954,142.892 -322.954,318.879l0,924.741c0,175.995 144.717,318.88 322.955,318.88l936.554,-0c178.25,-0 322.954,-142.885 322.954,-318.88l-0,-924.741Z" style="fill:#fff;"/></g></g></g><g id="line1"><g id="line11" serif:id="line1"><path d="M1783.47,1415.91l18.321,21.895c28.499,39.809 78.713,80.944 150.641,123.407c35.284,22.559 81.426,41.468 138.426,56.728c56.999,15.26 117.391,22.89 181.175,22.89c124.856,0 242.247,-35.164 352.174,-105.493c56.999,-35.829 103.141,-86.586 138.426,-152.27c35.286,-65.685 52.928,-141.654 52.928,-227.907c0,-86.252 -17.304,-158.904 -51.91,-217.954c-34.607,-59.049 -77.695,-100.518 -129.266,-124.404c-51.57,-23.885 -107.89,-44.121 -168.962,-60.708c-61.07,-16.587 -117.39,-28.861 -168.961,-36.823c-51.57,-7.962 -94.66,-23.222 -129.266,-45.78c-34.607,-22.559 -51.91,-52.084 -51.91,-88.575c0,-36.492 14.589,-65.022 43.768,-85.59c29.178,-20.568 65.82,-30.852 109.927,-30.852c44.105,-0 80.409,8.626 108.909,25.876c9.499,6.635 20.017,15.26 31.552,25.876c11.536,10.616 19.339,17.25 23.411,19.904c42.071,26.539 77.355,39.809 105.855,39.809c48.857,0 96.356,-33.174 142.498,-99.522c32.571,-46.444 48.857,-82.935 48.857,-109.475c-0,-26.539 -21.036,-59.05 -63.107,-97.532l-50.891,-37.818c-25.786,-21.232 -72.268,-42.132 -139.445,-62.699c-67.178,-20.569 -141.48,-30.853 -222.907,-30.853c-153.356,-0 -274.478,43.458 -363.369,130.375c-88.892,86.916 -133.338,188.761 -133.338,305.534c0,84.926 17.303,157.577 51.91,217.954c34.606,60.377 77.695,104.499 129.266,132.365c51.571,27.867 107.212,52.084 166.926,72.651c59.713,20.569 115.356,35.497 166.925,44.786c51.571,9.288 94.66,24.217 129.266,44.785c34.607,20.568 51.911,46.112 51.911,76.632c-0,100.849 -63.107,151.274 -189.319,151.274c-29.857,0 -62.428,-10.284 -97.713,-30.852c-35.284,-20.568 -62.427,-42.131 -81.427,-64.69c-67.856,-66.348 -120.784,-99.522 -158.783,-99.522c-38,0 -73.964,15.924 -107.891,47.771c-58.356,55.733 -87.535,100.518 -87.535,134.356c-0,33.837 17.643,71.988 52.928,114.451Z" style="fill:#fff;fill-rule:nonzero;"/><path d="M3530.09,924.275c31.213,-0 54.624,-0.994 70.231,-2.985c15.607,-1.991 33.589,-7.631 53.946,-16.919c36.642,-18.578 54.963,-69.666 54.963,-153.265c0,-84.926 -17.642,-136.014 -52.928,-153.264c-20.357,-10.616 -38.338,-16.919 -53.946,-18.91c-15.607,-1.99 -38.678,-2.986 -69.213,-2.986c-30.535,0 -75.66,2.654 -135.372,7.962l-0,-195.064c-0,-46.444 -3.393,-80.281 -10.179,-101.512c-17.642,-49.099 -72.606,-73.647 -164.89,-73.647c-86.856,-0 -139.106,16.587 -156.748,49.761c-10.856,17.25 -17.303,33.174 -19.339,47.771c-2.035,14.596 -3.053,37.155 -3.053,67.675l0,205.016l-67.178,-7.962c-32.57,0 -59.713,8.626 -81.427,25.876c-12.214,10.616 -21.714,28.198 -28.5,52.747c-6.786,24.55 -10.178,64.027 -10.178,118.432c-0,54.406 9.839,92.887 29.517,115.446c19.679,22.558 44.446,33.838 74.303,33.838c29.857,0 57.678,-1.99 83.463,-5.972l0,294.587c0,148.62 36.642,254.114 109.927,316.482c73.285,62.367 180.497,93.551 321.638,93.551c29.856,0 52.588,-0.995 68.195,-2.986c15.607,-1.991 33.589,-7.629 53.945,-16.919c38,-18.577 57,-69.665 57,-153.264c-0,-71.656 -15.607,-116.11 -46.821,-133.361c-19,-10.615 -36.982,-16.919 -53.946,-18.908c-16.963,-1.991 -41.392,-2.986 -73.284,-2.986c-31.892,-0 -53.607,-7.962 -65.142,-23.886c-11.535,-15.923 -17.303,-41.8 -17.303,-77.627l-0,-274.683l132.319,7.962Z" style="fill:#fff;fill-rule:nonzero;"/><path d="M4517.4,683.431c-9.5,-13.27 -21.714,-26.871 -36.642,-40.804c-14.928,-13.933 -41.393,-28.861 -79.392,-44.785c-37.999,-15.924 -80.07,-23.885 -126.212,-23.885c-120.784,-0 -231.728,52.083 -332.834,156.25c-101.105,104.166 -151.659,225.584 -151.659,364.252c0,138.668 50.214,260.418 150.64,365.247c100.428,104.831 209.337,157.246 326.728,157.246c117.392,-0 201.193,-35.165 251.407,-105.493c4.072,34.501 18.66,60.708 43.767,78.622c25.107,17.914 74.641,26.871 148.605,26.871c73.963,-0 120.445,-17.25 139.444,-51.751c9.5,-19.905 15.268,-37.488 17.303,-52.748c2.037,-15.259 3.054,-38.149 3.054,-68.67l0,-696.657c0,-30.521 -1.017,-53.411 -3.054,-68.672c-2.035,-15.259 -8.142,-32.841 -18.321,-52.746c-10.179,-19.904 -28.161,-33.838 -53.945,-41.8c-25.785,-7.962 -65.143,-11.942 -118.07,-11.942c-99.07,-0 -152.676,37.155 -160.819,111.465Zm-317.566,532.446c-35.286,-35.166 -52.928,-74.643 -52.928,-118.432c0,-43.791 16.625,-84.263 49.874,-121.418c33.25,-37.155 76.677,-55.732 130.284,-55.732c53.606,-0 96.356,18.577 128.248,55.732c31.892,37.155 47.839,77.296 47.839,120.423c-0,43.126 -16.625,82.603 -49.874,118.431c-33.25,35.828 -74.982,53.742 -125.196,53.742c-50.212,0 -92.962,-17.582 -128.247,-52.746Z" style="fill:#fff;fill-rule:nonzero;"/><path d="M5427.35,1227.82c-38.001,-31.184 -57,-74.973 -57,-131.369c-0,-56.396 19.679,-100.518 59.035,-132.366c39.356,-31.847 81.766,-47.771 127.23,-47.771c45.463,0 80.41,11.28 104.838,33.838c47.499,29.194 84.141,43.791 109.927,43.791c44.785,-0 91.605,-36.492 140.461,-109.476c28.5,-42.463 42.75,-80.612 42.75,-114.45c0,-33.838 -17.642,-64.027 -52.928,-90.566c-13.571,-9.288 -32.57,-21.895 -56.998,-37.818l-32.572,-19.904c-23.071,-13.27 -59.035,-26.872 -107.891,-40.805c-48.856,-13.934 -99.07,-20.9 -150.641,-20.9c-127.569,0 -247.674,43.79 -360.315,131.37c-55.642,42.463 -101.105,98.527 -136.391,168.194c-35.285,69.665 -52.928,147.292 -52.928,232.882c-0,85.589 17.643,163.88 52.928,234.873c35.286,70.992 80.749,127.72 136.391,170.183c116.712,88.907 238.174,133.36 364.387,133.36c112.641,0 207.64,-26.538 284.995,-79.617c74.642,-43.79 111.963,-90.898 111.963,-141.323c0,-30.519 -15.607,-65.021 -46.821,-103.503c-58.356,-70.329 -107.89,-105.493 -148.605,-105.493c-23.07,-0 -53.267,12.274 -90.588,36.823c-37.321,24.548 -77.355,36.823 -120.105,36.823c-42.749,-0 -83.123,-15.592 -121.122,-46.776Z" style="fill:#fff;fill-rule:nonzero;"/><path d="M6717.97,1095.45l201.532,-167.198c50.214,-41.136 75.32,-76.964 75.32,-107.485c0,-30.519 -22.052,-72.65 -66.159,-126.393c-44.107,-53.742 -83.124,-80.612 -117.052,-80.612c-33.928,-0 -74.641,17.913 -122.14,53.742l-24.429,15.923c-24.428,19.904 -61.409,53.742 -110.944,101.513c-49.536,47.771 -86.517,81.609 -110.945,101.513l-0,-630.973c-0,-25.212 -0.679,-43.79 -2.036,-55.732c-1.357,-39.809 -13.572,-69.002 -36.643,-87.58c-27.141,-22.559 -73.283,-33.838 -138.425,-33.838c-86.857,0 -139.784,17.914 -158.783,53.742c-9.501,19.905 -15.269,37.487 -17.304,52.748c-2.036,15.259 -3.054,38.149 -3.054,68.67l-0,1192.28c-0,30.52 1.018,53.41 3.054,68.671c2.035,15.26 7.803,32.842 17.304,52.747c18.999,35.828 71.248,53.742 156.747,53.742c86.855,0 139.104,-17.251 156.748,-51.752c10.856,-19.904 17.302,-37.486 19.339,-52.747c2.035,-15.26 3.053,-38.15 3.053,-68.67l-0,-153.265c33.928,26.54 83.463,71.324 148.604,134.355c65.142,63.032 113.321,107.153 144.534,132.365l20.356,13.934c52.929,38.482 94.321,57.722 124.177,57.722c35.286,0 75.999,-27.865 122.142,-83.598c42.07,-54.406 63.106,-97.532 63.106,-129.38c0,-13.269 -4.411,-27.202 -13.232,-41.799c-8.821,-14.597 -30.196,-35.828 -64.124,-63.695l-270.746,-218.949l0,0.002Z" style="fill:#fff;fill-rule:nonzero;"/></g><g id="line12" serif:id="line1"><path d="M7356.65,162.634c-77.155,0 -124.171,17.937 -141.049,53.811c-9.644,19.929 -15.37,37.203 -17.179,51.817c-1.808,14.616 -2.712,37.868 -2.712,69.756l-0,1108.1c-0,57.131 7.233,99.649 21.7,127.55c18.083,33.216 63.894,49.825 137.432,49.825l330.925,-0c184.449,-0 341.472,-72.412 471.069,-217.236c129.597,-144.822 194.395,-318.545 194.395,-521.165c0,-202.62 -66.305,-373.352 -198.916,-512.196c-132.611,-138.845 -286.318,-208.267 -461.123,-208.267l-334.542,-1.993l0,-0.005Zm569.624,1001.48c-69.921,71.083 -148.283,106.624 -235.082,106.624l-175.408,0l0,-753.348l173.599,0c91.623,0 171.49,36.206 239.603,108.619c68.115,72.411 102.172,162.427 102.172,270.049c-0,107.62 -34.962,196.973 -104.884,268.056Z" style="fill:#fff;fill-rule:nonzero;"/><path d="M8593.56,706.72c-101.266,103.635 -151.899,235.172 -151.899,394.61c-0,106.292 25.617,201.623 76.853,285.993c51.237,84.369 114.227,148.145 188.971,191.327c74.744,43.181 151.899,64.772 231.466,64.772c79.567,-0 156.421,-20.263 230.562,-60.786c74.142,-40.525 137.131,-103.635 188.971,-189.334c51.838,-85.699 77.757,-183.686 77.757,-293.965c0,-159.439 -50.03,-290.643 -150.091,-393.614c-100.061,-102.972 -215.191,-154.457 -345.391,-154.457c-130.199,0 -245.932,51.818 -347.199,155.454Zm343.583,585.937c-39.784,-0 -78.964,-16.276 -117.541,-48.828c-38.578,-32.553 -57.867,-81.049 -57.867,-145.489c0,-64.44 18.686,-113.268 56.058,-146.484c37.372,-33.217 77.758,-49.825 121.158,-49.825c43.4,0 83.786,15.944 121.158,47.832c37.372,31.888 56.058,80.384 56.058,145.488c-0,65.104 -19.891,114.265 -59.675,147.481c-39.783,33.217 -79.566,49.825 -119.349,49.825Z" style="fill:#fff;fill-rule:nonzero;"/><path d="M9902.79,1231.87c-33.755,-31.223 -50.633,-75.07 -50.633,-131.537c-0,-56.467 17.48,-100.646 52.441,-132.533c34.962,-31.888 72.635,-47.832 113.021,-47.832c40.386,-0 71.429,11.294 93.129,33.88c42.194,29.231 74.744,43.846 97.65,43.846c39.783,0 81.375,-36.537 124.774,-109.614c25.317,-42.517 37.976,-80.715 37.976,-114.596c-0,-33.88 -15.673,-64.108 -47.017,-90.681c-12.056,-9.3 -28.934,-21.923 -50.633,-37.867l-28.934,-19.929c-20.494,-13.287 -52.441,-26.906 -95.841,-40.857c-43.4,-13.951 -88.006,-20.926 -133.816,-20.926c-113.322,-0 -220.014,43.846 -320.075,131.537c-49.427,42.516 -89.813,98.653 -121.158,168.407c-31.344,69.754 -47.016,147.481 -47.016,233.179c0,85.698 15.672,164.09 47.016,235.172c31.345,71.083 71.731,127.884 121.158,170.4c103.678,89.02 211.575,133.53 323.691,133.53c100.061,0 184.449,-26.573 253.167,-79.719c66.305,-43.845 99.458,-91.013 99.458,-141.502c-0,-30.559 -13.864,-65.104 -41.592,-103.635c-51.839,-70.419 -95.842,-105.629 -132.008,-105.629c-20.495,0 -47.318,12.291 -80.471,36.871c-33.153,24.58 -68.716,36.87 -106.691,36.87c-37.975,0 -73.841,-15.611 -107.596,-46.835Z" style="fill:#fff;fill-rule:nonzero;"/><path d="M11049.2,1099.34l179.025,-167.411c44.605,-41.188 66.908,-77.062 66.908,-107.62c0,-30.56 -19.59,-72.745 -58.77,-126.555c-39.181,-53.811 -73.841,-80.716 -103.98,-80.716c-30.138,-0 -66.305,17.936 -108.499,53.81l-21.7,15.944c-21.7,19.931 -54.551,53.811 -98.554,101.642c-44.003,47.832 -76.854,81.712 -98.554,101.643l0,-631.776c0,-25.245 -0.602,-43.846 -1.808,-55.804c-1.205,-39.86 -12.056,-69.09 -32.55,-87.691c-24.111,-22.587 -65.1,-33.881 -122.966,-33.881c-77.155,-0 -124.172,17.937 -141.05,53.81c-8.439,19.931 -13.563,37.536 -15.371,52.815c-1.808,15.279 -2.712,38.199 -2.712,68.758l-0,1193.8c-0,30.559 0.904,53.478 2.712,68.758c1.808,15.279 6.932,32.884 15.371,52.814c16.878,35.873 63.292,53.81 139.241,53.81c77.156,0 123.57,-17.272 139.241,-51.817c9.645,-19.93 15.371,-37.535 17.18,-52.814c1.808,-15.28 2.712,-38.199 2.712,-68.758l0,-153.46c30.139,26.574 74.142,71.415 132.008,134.527c57.867,63.111 100.664,107.288 128.391,132.533l18.083,13.951c47.017,38.531 83.787,57.796 110.309,57.796c31.344,0 67.511,-27.902 108.5,-83.705c37.371,-54.475 56.058,-97.656 56.058,-129.544c0,-13.286 -3.918,-27.237 -11.755,-41.852c-7.836,-14.616 -26.823,-35.874 -56.962,-63.776l-240.508,-219.228l0,0.001Z" style="fill:#fff;fill-rule:nonzero;"/></g></g><g><g><path d="M1344.03,922.313l-146.9,-0l-0,-226.388c-0,-16.404 -9.796,-32.812 -24.483,-39.375c-16.325,-8.2 -34.28,-4.921 -47.338,6.563c-89.775,75.466 -244.837,77.104 -337.875,-0c-16.321,-13.125 -39.175,-13.125 -55.5,-0c-91.404,75.466 -244.837,77.104 -337.879,-0c-16.317,-13.125 -39.171,-13.125 -55.492,-0c-79.979,65.62 -205.666,73.825 -295.441,27.887l-0,95.15c88.141,32.813 192.608,29.529 279.116,-11.483l0,147.646l-279.116,-0l-0,86.945l279.116,0l0,162.413c13.059,6.562 27.75,11.483 44.071,11.483c16.321,0 31.017,-4.921 44.075,-11.483l0,-160.771l306.863,-0l-0,160.771c13.058,8.2 27.745,11.483 44.071,11.483c16.32,0 31.008,-4.921 44.07,-11.483l0,-160.771l306.867,-0l-0,160.771c13.054,8.2 29.379,11.483 45.7,11.483c14.692,0 29.379,-3.283 42.437,-9.842l0,-162.412l146.905,-0c16.32,-0 29.379,-13.125 29.379,-29.529l-0,-26.25c-3.267,-19.684 -16.321,-32.809 -32.646,-32.809Zm-628.417,0l-306.862,0l-0,-147.645c94.667,44.295 212.192,44.295 306.862,-0l0,147.645Zm395.009,0l-306.867,0l0,-147.645c94.671,44.295 213.825,44.295 306.867,-0l-0,147.645Z" style="fill-rule:nonzero;stroke:#000;stroke-width:19.58px;"/></g></g><g><g transform="matrix(0.931155,0,0,1,786.136,0)"><text x="11418.9px" y="263.783px" style="font-family:'Outfit-Bold', 'Outfit';font-weight:700;font-size:237.892px;fill:#fff;">TM</text></g></g></svg>